<svg width="40" height="12" viewBox="0 0 40 12" fill="none" xmlns="http://www.w3.org/2000/svg">
<path d="M1 5.25C0.585786 5.25 0.25 5.58579 0.25 6C0.25 6.41421 0.585786 6.75 1 6.75L1 5.25ZM39.5303 6.53033C39.8232 6.23743 39.8232 5.76256 39.5303 5.46967L34.7574 0.696696C34.4645 0.403803 33.9896 0.403803 33.6967 0.696696C33.4038 0.98959 33.4038 1.46446 33.6967 1.75736L37.9393 6L33.6967 10.2426C33.4038 10.5355 33.4038 11.0104 33.6967 11.3033C33.9896 11.5962 34.4645 11.5962 34.7574 11.3033L39.5303 6.53033ZM1 6.75L39 6.75L39 5.25L1 5.25L1 6.75Z" fill="#717171"/>
</svg>
