<svg width="20" height="20" viewBox="0 0 20 20" fill="none" xmlns="http://www.w3.org/2000/svg">
<path fill-rule="evenodd" clip-rule="evenodd" d="M15.0804 2.12398C14.6204 1.86565 14.1304 1.84065 13.6129 1.90481C13.1212 1.96648 12.522 2.12148 11.8029 2.30898L10.1204 2.74565C9.40118 2.93315 8.80285 3.08815 8.34535 3.27398C7.86285 3.46898 7.44618 3.73065 7.17618 4.18481C6.90452 4.64148 6.87785 5.12981 6.94535 5.63981C7.00952 6.12065 7.17035 6.70398 7.36202 7.39898L7.81452 9.03565C8.00618 9.73148 8.16785 10.314 8.36035 10.7606C8.56452 11.2356 8.83702 11.6398 9.30035 11.8998C9.76035 12.1573 10.2504 12.1831 10.7687 12.1181C11.2604 12.0573 11.8595 11.9015 12.5787 11.714L14.2612 11.2773C14.9804 11.0906 15.5787 10.9348 16.0362 10.749C16.5187 10.554 16.9354 10.2923 17.2053 9.83815C17.477 9.38148 17.5037 8.89315 17.4362 8.38398C17.372 7.90315 17.2112 7.31898 17.0195 6.62398L16.567 4.98731C16.3754 4.29231 16.2137 3.70898 16.0212 3.26231C15.817 2.78731 15.5429 2.38315 15.0804 2.12398ZM12.077 3.52898C12.8479 3.32898 13.367 3.19565 13.7687 3.14565C14.1529 3.09731 14.337 3.13981 14.4712 3.21481C14.602 3.28815 14.7278 3.41565 14.8737 3.75648C15.0279 4.11481 15.1679 4.61398 15.3745 5.36231L15.8029 6.91481C16.0104 7.66315 16.147 8.16315 16.1979 8.54815C16.2462 8.91398 16.2029 9.07981 16.1312 9.19898C16.0587 9.32148 15.927 9.44565 15.5687 9.59065C15.1954 9.74148 14.677 9.87815 13.9062 10.0781L12.3062 10.494C11.5354 10.694 11.0162 10.8273 10.6145 10.8773C10.2295 10.9265 10.0462 10.884 9.91202 10.809C9.78118 10.7356 9.65535 10.6073 9.50952 10.2673C9.35535 9.90898 9.21535 9.40898 9.00868 8.66065L8.58035 7.10898C8.37285 6.35898 8.23618 5.85981 8.18535 5.47565C8.13702 5.10898 8.18035 4.94398 8.25202 4.82398C8.32452 4.70148 8.45618 4.57731 8.81452 4.43231C9.18785 4.28148 9.70618 4.14565 10.477 3.94481L12.077 3.52898Z" fill="#717171" stroke="#717171" stroke-width="0.2"/>
<path fill-rule="evenodd" clip-rule="evenodd" d="M2.67226 3.16642C2.51438 3.12771 2.34763 3.15204 2.20739 3.23424C2.06715 3.31643 1.96446 3.45004 1.92109 3.6067C1.87772 3.76336 1.8971 3.93076 1.97511 4.07337C2.05312 4.21598 2.18362 4.32259 2.33893 4.37058L3.75809 4.76475C4.11309 4.86308 4.37726 5.13142 4.46726 5.45725L6.09393 11.3431C6.03098 11.3555 5.96845 11.37 5.90643 11.3864C4.25893 11.8139 3.25226 13.4714 3.70393 15.1089C4.15393 16.7381 5.86559 17.6772 7.50643 17.2506C8.94309 16.8781 9.89226 15.5706 9.81226 14.1572L16.8289 12.3339C16.9084 12.3133 16.983 12.2772 17.0485 12.2277C17.114 12.1783 17.1691 12.1164 17.2107 12.0456C17.2523 11.9749 17.2796 11.8966 17.2909 11.8153C17.3022 11.734 17.2975 11.6513 17.2768 11.5718C17.2562 11.4924 17.2201 11.4178 17.1707 11.3523C17.1212 11.2868 17.0593 11.2316 16.9886 11.19C16.9178 11.1484 16.8395 11.1212 16.7582 11.1099C16.6769 11.0985 16.5942 11.1033 16.5148 11.1239L9.48309 12.9514C9.27273 12.5494 8.97667 12.1985 8.61582 11.9235C8.25497 11.6485 7.83814 11.456 7.39476 11.3597L5.67226 5.12392C5.56653 4.74879 5.36541 4.40746 5.08851 4.13319C4.81161 3.85892 4.46838 3.66106 4.09226 3.55892L2.67226 3.16642ZM6.22143 12.5956C7.23143 12.3339 8.24476 12.9197 8.50476 13.8614C8.76309 14.7947 8.19643 15.7806 7.19309 16.0414C6.18309 16.3039 5.16976 15.7172 4.90976 14.7756C4.65143 13.8422 5.21809 12.8564 6.22143 12.5956Z" fill="#717171" stroke="#717171" stroke-width="0.2"/>
</svg>
