<svg width="24" height="24" viewBox="0 0 24 24" fill="none" xmlns="http://www.w3.org/2000/svg">
<path d="M7.35778 19.0003C7.34969 19.0003 7.34097 19.0003 7.33288 19.0003C7.28308 18.996 7.23328 18.9922 7.18348 18.9879C7.1592 18.9866 7.13492 18.9847 7.11064 18.9835C7.1013 18.9816 7.09197 18.9791 7.08263 18.9773C7.03407 18.9754 6.98489 18.9735 6.93634 18.9711C6.93074 18.9692 6.92513 18.9673 6.92015 18.9655C6.86475 18.9605 6.80935 18.9567 6.75394 18.9511C6.42152 18.9169 6.09283 18.8615 5.7685 18.7818C5.22879 18.6492 4.7121 18.4556 4.22218 18.1917C3.65383 17.8848 3.14586 17.5007 2.70885 17.0238C2.56443 16.8663 2.42935 16.702 2.31107 16.5233C2.29924 16.5053 2.28119 16.4903 2.26562 16.4742C2.26562 16.3167 2.26562 16.1592 2.26562 16.001C2.27061 15.9793 2.27808 15.9575 2.27932 15.9357C2.28181 15.8884 2.28181 15.8404 2.28243 15.7931C2.28866 15.6861 2.29426 15.5784 2.30111 15.4713C2.31294 15.2876 2.32352 15.104 2.33846 14.9204C2.35651 14.7081 2.37519 14.4958 2.40071 14.2842C2.43619 13.9903 2.47105 13.6965 2.51961 13.4045C2.58248 13.0267 2.65345 12.6501 2.73002 12.2747C2.82838 11.7916 2.95039 11.3135 3.08423 10.8392C3.20437 10.4146 3.33199 9.99193 3.4789 9.57609C3.58162 9.28538 3.68495 8.99404 3.79514 8.70582C3.94143 8.32235 4.09768 7.94324 4.27074 7.57098C4.38341 7.32882 4.50231 7.08915 4.61748 6.84762C4.65047 6.77852 4.69716 6.72374 4.76128 6.68141C4.9113 6.58118 5.05759 6.47536 5.20824 6.377C5.68882 6.06263 6.19555 5.79993 6.7278 5.58454C7.28681 5.35857 7.86264 5.18924 8.45776 5.08964C8.62086 5.06225 8.78582 5.04544 8.94954 5.02366C8.95452 5.02241 8.9595 5.02117 8.96448 5.01992C8.98005 5.01992 8.99561 5.01992 9.01117 5.01992C9.01615 5.01805 9.02176 5.01619 9.02674 5.01432C9.05475 5.01307 9.08338 5.01121 9.1114 5.00996C9.15373 5.00934 9.19668 5.02366 9.23714 5C9.2745 5 9.31185 5 9.3492 5C9.40398 5.06287 9.46 5.12513 9.51167 5.19734C9.49238 5.20481 9.48117 5.20916 9.46996 5.2129C9.18983 5.30379 8.90846 5.38969 8.63019 5.48556C8.13405 5.65613 7.65036 5.85844 7.17787 6.08753C6.8081 6.26619 6.44767 6.46166 6.09906 6.67954C5.80523 6.86318 5.52012 7.05927 5.25306 7.28026C5.23003 7.29956 5.20824 7.32011 5.18583 7.3394C5.18832 7.34252 5.19019 7.34625 5.19268 7.34936C5.2126 7.34065 5.23314 7.33193 5.25244 7.3226C5.53568 7.1844 5.81519 7.03811 6.10217 6.90925C6.57902 6.6951 7.06769 6.51084 7.56632 6.35272C8.09857 6.18402 8.63767 6.04458 9.18797 5.94809C9.33675 5.92194 9.48615 5.9014 9.63555 5.88086C9.73578 5.86716 9.836 5.8572 9.93623 5.84537C10.0059 5.83728 10.0757 5.82794 10.146 5.81985C10.1591 5.81798 10.1728 5.81549 10.1859 5.81362C10.2494 5.8074 10.3128 5.80117 10.3763 5.79557C10.4274 5.79059 10.4784 5.78748 10.5301 5.78188C10.6017 5.77441 10.6727 5.76569 10.7442 5.7576C10.7492 5.75573 10.7548 5.75386 10.7598 5.752C10.8046 5.74951 10.8488 5.74764 10.8937 5.74515C10.8986 5.74328 10.9042 5.74141 10.9092 5.73955C10.9621 5.73706 11.0144 5.73457 11.0673 5.73208C11.0729 5.73021 11.0779 5.72896 11.0835 5.72709C11.1445 5.72523 11.2062 5.72274 11.2672 5.72087C11.2728 5.719 11.2777 5.71651 11.2833 5.71464C11.3195 5.71527 11.3549 5.71651 11.391 5.71713C11.396 5.71527 11.4016 5.7134 11.4066 5.71153C11.4639 5.71029 11.5211 5.70842 11.5784 5.70717C11.5878 5.70593 11.5965 5.70531 11.6058 5.70406C11.6874 5.70406 11.7695 5.70468 11.8511 5.70468C11.8561 5.70282 11.8617 5.70095 11.8666 5.69908C11.9569 5.6997 12.0472 5.70033 12.1368 5.70095C12.1424 5.70219 12.148 5.70344 12.1536 5.70468C12.2439 5.70406 12.3341 5.70406 12.4238 5.70344C12.4288 5.70468 12.4337 5.70593 12.4394 5.70655C12.501 5.7078 12.562 5.70966 12.6236 5.71091C12.6286 5.71278 12.6342 5.71464 12.6392 5.71651C12.6715 5.71651 12.7033 5.71651 12.7357 5.71651C12.7406 5.71776 12.7456 5.719 12.7506 5.72025C12.7873 5.72149 12.8241 5.72211 12.8608 5.72336C12.8658 5.72523 12.8714 5.72709 12.8764 5.72896C12.9 5.72896 12.9237 5.72896 12.9479 5.72896C12.9529 5.73021 12.9579 5.73145 12.9623 5.7327C12.9909 5.73394 13.0189 5.73519 13.0475 5.73581C13.0525 5.73768 13.0581 5.73955 13.0631 5.74141C13.0787 5.74141 13.0936 5.74079 13.1092 5.74079C13.1142 5.74204 13.1198 5.74266 13.1247 5.7439C13.1696 5.74639 13.2138 5.74888 13.2586 5.75137C13.2642 5.75324 13.2692 5.75449 13.2748 5.75635C13.3134 5.76133 13.352 5.76694 13.3912 5.77067C13.459 5.77752 13.5269 5.78125 13.5941 5.78935C13.6943 5.8018 13.7946 5.81798 13.8948 5.8323C14.0006 5.84724 14.1077 5.85782 14.2129 5.8765C14.4252 5.91385 14.6374 5.95182 14.8485 5.99602C15.489 6.12924 16.1153 6.31226 16.7285 6.53947C17.3261 6.76109 17.9056 7.02192 18.4659 7.32571C18.4821 7.33442 18.4995 7.34127 18.5169 7.34874C18.5151 7.33131 18.5082 7.32384 18.5008 7.31762C18.2692 7.11841 18.0202 6.94411 17.7643 6.77727C17.2943 6.471 16.8013 6.20767 16.2921 5.97299C15.7306 5.71402 15.1535 5.49428 14.5634 5.31001C14.5204 5.29694 14.4787 5.282 14.4283 5.26519C14.508 5.17244 14.5814 5.08653 14.6555 5.00062C14.6928 5.00062 14.7302 5.00062 14.7675 5.00062C14.808 5.02428 14.851 5.00996 14.8933 5.01058C14.9419 5.01307 14.991 5.01556 15.0396 5.01805C15.0452 5.01992 15.0502 5.02117 15.0558 5.02303C15.0863 5.02801 15.1168 5.03362 15.1473 5.03735C15.2481 5.0498 15.349 5.05852 15.4492 5.07346C15.8625 5.13446 16.2666 5.23406 16.6643 5.36106C17.1873 5.52851 17.6896 5.74328 18.1727 6.00349C18.5674 6.21639 18.9446 6.45792 19.305 6.72436C19.3275 6.74117 19.3474 6.76482 19.3598 6.78972C19.4569 6.98208 19.5572 7.17319 19.6462 7.36928C19.795 7.69735 19.9419 8.02728 20.0794 8.36032C20.2892 8.86767 20.476 9.38436 20.6441 9.90727C20.7163 10.132 20.7904 10.3567 20.8539 10.5839C20.9615 10.9711 21.0655 11.3596 21.1639 11.7487C21.2255 11.9933 21.279 12.2411 21.327 12.4888C21.3886 12.8038 21.444 13.1201 21.4969 13.4363C21.5324 13.6504 21.5617 13.8658 21.589 14.0812C21.6108 14.2518 21.6276 14.4224 21.6444 14.5935C21.665 14.8077 21.6849 15.0218 21.7011 15.236C21.7111 15.3698 21.7123 15.5049 21.7179 15.6394C21.721 15.6935 21.7042 15.7489 21.7291 15.8018C21.7291 16.0303 21.7291 16.2581 21.7291 16.4866C21.6731 16.5638 21.6195 16.6422 21.5617 16.7176C21.3836 16.9473 21.1838 17.1571 20.9696 17.3531C20.7424 17.5611 20.4996 17.7472 20.2432 17.9165C19.9798 18.0908 19.7035 18.2415 19.4158 18.3722C19.1687 18.4849 18.9153 18.582 18.6558 18.6629C18.3028 18.7725 17.9436 18.8553 17.5776 18.9088C17.4145 18.9325 17.252 18.9598 17.0864 18.9642C17.0771 18.9661 17.0677 18.9686 17.0584 18.9704C17.0136 18.9723 16.9688 18.9748 16.9246 18.9767C16.9115 18.9785 16.8978 18.981 16.8847 18.9829C16.8604 18.9841 16.8362 18.986 16.8113 18.9872C16.7615 18.9916 16.7117 18.996 16.6619 18.9997C16.6538 18.9997 16.645 18.9997 16.637 18.9997C16.6307 18.9872 16.6257 18.9729 16.617 18.9623C16.5187 18.8422 16.4185 18.7233 16.3207 18.6031C16.0736 18.2994 15.8277 17.995 15.5812 17.6912C15.5712 17.6787 15.5631 17.6644 15.5507 17.6457C15.5731 17.6383 15.5899 17.632 15.6073 17.6264C15.7468 17.5804 15.8874 17.5374 16.0263 17.4876C16.4844 17.3226 16.9177 17.1073 17.3236 16.8377C17.679 16.6018 18.0027 16.3279 18.2879 16.0104C18.3682 15.9214 18.4385 15.8236 18.5132 15.7296C18.5201 15.7203 18.5219 15.7072 18.5263 15.6954C18.4684 15.7197 18.4198 15.7502 18.3707 15.7813C18.0283 15.9967 17.6747 16.1915 17.3086 16.364C16.9806 16.519 16.6407 16.6466 16.3033 16.7786C15.8047 16.974 15.2942 17.1315 14.7719 17.2504C14.4202 17.3301 14.0654 17.393 13.7087 17.444C13.6028 17.459 13.4964 17.4708 13.3899 17.482C13.3345 17.4882 13.2791 17.4901 13.2237 17.4951C13.1378 17.5032 13.0519 17.5119 12.966 17.5206C12.9567 17.5225 12.9473 17.525 12.938 17.5268C12.8851 17.5287 12.8322 17.5312 12.7792 17.533C12.7662 17.5349 12.7525 17.5374 12.7394 17.5393C12.6535 17.5418 12.5676 17.5443 12.4811 17.5467C12.4636 17.5486 12.4456 17.5505 12.4281 17.5523C12.2383 17.5523 12.0484 17.5523 11.8585 17.5523C11.8368 17.5505 11.815 17.5486 11.7932 17.5474C11.7029 17.5449 11.6127 17.5424 11.523 17.5405C11.5137 17.5387 11.5043 17.5362 11.495 17.5343C11.4377 17.5324 11.3805 17.5299 11.3232 17.5281C11.3138 17.5262 11.3045 17.5237 11.2958 17.5218C11.251 17.52 11.2062 17.5175 11.1613 17.5156C11.152 17.5138 11.1427 17.5113 11.1339 17.5094C11.0935 17.5075 11.053 17.505 11.0126 17.5032C11.0069 17.5013 11.002 17.4988 10.9964 17.4969C10.8712 17.4839 10.7455 17.4739 10.6204 17.4571C10.306 17.4148 9.9935 17.3643 9.68286 17.2984C9.20602 17.1975 8.7354 17.0718 8.27225 16.9193C8.01453 16.8346 7.75992 16.7406 7.50531 16.6453C7.17912 16.5227 6.85977 16.3839 6.54976 16.2245C6.35989 16.1268 6.1694 16.0315 5.99199 15.9114C5.86686 15.8267 5.73364 15.7545 5.60354 15.6767C5.59794 15.6736 5.59047 15.6724 5.58424 15.6705C5.61288 15.7278 5.64649 15.7769 5.6826 15.8236C5.85379 16.0434 6.04801 16.2413 6.2578 16.4237C6.60516 16.7257 6.98738 16.9771 7.39762 17.1857C7.72382 17.3513 8.06246 17.4864 8.41169 17.5941C8.42975 17.5997 8.44718 17.6084 8.46834 17.6171C8.4534 17.6376 8.44344 17.6507 8.43348 17.6638C8.09234 18.0865 7.75121 18.5085 7.41007 18.9312C7.38828 18.9511 7.37396 18.9767 7.35778 19.0003ZM16.6699 12.9644C16.6575 12.8661 16.6513 12.7665 16.632 12.67C16.5542 12.279 16.3755 11.9404 16.0848 11.6652C15.809 11.4044 15.4809 11.2563 15.1025 11.2214C15.0147 11.2033 14.9269 11.2033 14.8385 11.2214C14.7657 11.2326 14.691 11.2394 14.6194 11.2563C14.2677 11.3359 13.9763 11.5171 13.7404 11.7873C13.2717 12.3239 13.1391 13.0995 13.4036 13.7762C13.581 14.2294 13.8848 14.5699 14.3305 14.7759C14.4874 14.8482 14.653 14.8924 14.8261 14.9073C14.9263 14.9272 15.0259 14.926 15.1261 14.9067C15.2544 14.8973 15.3782 14.8674 15.4984 14.8233C15.9746 14.6489 16.3008 14.3165 16.5062 13.8596C16.6307 13.5832 16.6737 13.2906 16.6693 12.99C16.6706 12.9812 16.6706 12.9731 16.6699 12.9644ZM9.01491 11.2201C8.93087 11.2021 8.84745 11.2021 8.76341 11.2201C8.68622 11.232 8.60779 11.2388 8.53122 11.2569C8.13219 11.349 7.8147 11.5675 7.5713 11.8925C7.28744 12.2728 7.16667 12.7042 7.19157 13.1773C7.21024 13.5247 7.31296 13.8453 7.50531 14.1354C7.74623 14.4983 8.0718 14.7486 8.49573 14.8625C8.57106 14.8824 8.64949 14.8917 8.72668 14.906C8.835 14.9266 8.9427 14.9253 9.05101 14.9067C9.07716 14.9029 9.10393 14.8992 9.13007 14.8948C9.56459 14.8245 9.91257 14.6079 10.1815 14.2649C10.4772 13.887 10.5986 13.4525 10.5855 12.9763C10.5774 12.6725 10.5052 12.3842 10.3558 12.1203C10.0607 11.5961 9.62123 11.2824 9.01491 11.2201Z" fill="#717171"/>
</svg>
