<svg width="24" height="24" viewBox="0 0 24 24" fill="none" xmlns="http://www.w3.org/2000/svg">
<path d="M10.1561 9.79291H9.95609H7.72406C7.64178 9.79291 7.575 9.85959 7.575 9.94214V12.7565C7.575 12.8389 7.64176 12.9056 7.72406 12.9056H9.95609H10.1561V13.1056V20.2072C10.1561 20.2896 10.2227 20.3563 10.3052 20.3563H13.2173C13.2997 20.3563 13.3664 20.2895 13.3664 20.2072V13.1056V12.9056H13.5664H16.1761C16.2586 12.9056 16.3252 12.839 16.3252 12.7565V12.7565L16.3263 9.94214L10.1561 9.79291ZM10.1561 9.79291V9.59291M10.1561 9.79291V9.59291M10.1561 9.59291V7.65045C10.1561 6.41314 10.545 5.41331 11.2169 4.7238C11.8884 4.03485 12.8602 3.63754 14.0617 3.6375C14.0617 3.6375 14.0618 3.6375 14.0618 3.6375L16.2814 3.64106C16.2814 3.64106 16.2814 3.64106 16.2814 3.64106C16.3637 3.64124 16.4303 3.70802 16.4303 3.79012V6.40345C16.4303 6.48582 16.3635 6.55251 16.2814 6.55251H16.2813L14.786 6.55305C14.7859 6.55305 14.7859 6.55305 14.7859 6.55305C14.2547 6.55305 13.8744 6.65453 13.6396 6.9205C13.4101 7.18052 13.3664 7.5484 13.3664 7.94626V9.59291V9.79291M10.1561 9.59291L13.3664 9.79291M13.3664 9.79291H13.5664M13.3664 9.79291H13.5664M13.5664 9.79291H16.177C16.2167 9.79291 16.2547 9.80873 16.2824 9.83654C16.3106 9.86476 16.3263 9.90271 16.3263 9.94207L13.5664 9.79291Z" fill="#717171" stroke="#EDEDED" stroke-width="0.4"/>
</svg>
