<svg width="20" height="20" viewBox="0 0 20 20" fill="none" xmlns="http://www.w3.org/2000/svg">
<path d="M11.34 14.7346C13.87 14.7346 15.1354 14.7346 15.921 13.9483C16.7073 13.1627 16.7073 11.8973 16.7073 9.36731C16.7073 6.83729 16.7073 5.57195 15.921 4.78631C15.1354 4 13.87 4 11.34 4H8.65637C6.12636 4 4.86101 4 4.07537 4.78631C3.28906 5.57195 3.28906 6.83729 3.28906 9.36731C3.28906 11.8973 3.28906 13.1627 4.07537 13.9483C4.51348 14.3871 5.10053 14.581 5.97272 14.6662" stroke="#717171" stroke-width="1.5" stroke-linecap="round" stroke-linejoin="round"/>
<path d="M8.64931 7.68314C8.98476 7.01893 9.32022 6.6875 9.99113 6.6875C10.8271 6.6875 11.333 7.35103 11.333 8.01457C11.333 8.6781 10.9975 8.70762 9.99113 9.37115V10.0421M9.99113 11.7194V12.0548M11.333 14.7385C10.5037 14.7385 9.58993 15.0739 8.75598 15.5067C7.4155 16.2024 6.74525 16.5506 6.41516 16.3285C6.08507 16.1071 6.14747 15.4194 6.27293 14.0447L6.30111 13.7321" stroke="#717171" stroke-width="1.5" stroke-linecap="round"/>
</svg>
