<svg width="20" height="20" viewBox="0 0 20 20" fill="none" xmlns="http://www.w3.org/2000/svg">
<path d="M16.6892 11.0822L11.3417 16.4307C10.9871 16.7851 10.5064 16.9842 10.005 16.9842C9.50373 16.9842 9.02294 16.7851 8.6684 16.4307L3.32089 11.0832C2.87884 10.645 2.5277 10.1238 2.28762 9.54952C2.04754 8.97526 1.92325 8.35923 1.92189 7.7368C1.92052 7.11438 2.04211 6.49781 2.27968 5.9225C2.51724 5.34719 2.8661 4.82447 3.30622 4.38435C3.74635 3.94422 4.26907 3.59537 4.84438 3.3578C5.41969 3.12024 6.03625 2.99865 6.65868 3.00001C7.28111 3.00137 7.89714 3.12566 8.4714 3.36574C9.04566 3.60582 9.56685 3.95697 10.005 4.39902C10.8951 3.53112 12.0912 3.04882 13.3344 3.05661C14.5775 3.0644 15.7675 3.56165 16.6466 4.44063C17.5258 5.31961 18.0232 6.50956 18.0311 7.75269C18.0391 8.99583 17.557 10.192 16.6892 11.0822Z" stroke="black" stroke-width="1.5" stroke-linecap="round" stroke-linejoin="round"/>
</svg>
