<svg width="20" height="20" viewBox="0 0 20 20" fill="none" xmlns="http://www.w3.org/2000/svg">
<g clip-path="url(#clip0_105_2550)">
<path d="M13.9983 11.3319C14.1578 10.9056 14.2388 10.4538 14.2372 9.99861C14.2372 8.98784 13.8356 8.01847 13.1209 7.30375C12.4062 6.58903 11.4368 6.1875 10.426 6.1875C9.97642 6.18803 9.53052 6.26893 9.10938 6.42639L10.0038 7.34861C10.1398 7.32686 10.2772 7.31571 10.4149 7.31528C11.1296 7.31379 11.8159 7.59513 12.3238 8.09788C12.8318 8.60064 13.1202 9.28395 13.126 9.99861C13.1256 10.1363 13.1144 10.2738 13.0927 10.4097L13.9983 11.3319Z" fill="black"/>
<path d="M19.0516 9.74306C17.1793 6.28194 13.896 4.1875 10.2627 4.1875C9.27342 4.18982 8.29082 4.34921 7.35156 4.65972L8.24601 5.55972C8.90481 5.38946 9.58223 5.30175 10.2627 5.29861C13.3905 5.29861 16.2349 7.04305 17.9293 9.98194C17.3078 11.0723 16.4838 12.0339 15.5016 12.8153L16.2905 13.6042C17.4272 12.6871 18.3712 11.5543 19.0682 10.2708L19.2127 10.0042L19.0516 9.74306Z" fill="black"/>
<path d="M2.70365 3.21059L5.18142 5.68837C3.61527 6.69676 2.33526 8.09157 1.46476 9.73837L1.32031 9.99948L1.46476 10.2661C3.33698 13.7273 6.62031 15.8217 10.2536 15.8217C11.6718 15.8214 13.0715 15.5004 14.3481 14.8828L17.1259 17.6606L18.0981 16.8273L3.65365 2.38281L2.70365 3.21059ZM8.12031 8.62726L11.8148 12.3217C11.3973 12.5801 10.9168 12.7185 10.4259 12.7217C10.0692 12.7217 9.71598 12.6512 9.38663 12.5142C9.05729 12.3772 8.75829 12.1764 8.50683 11.9234C8.25538 11.6704 8.05644 11.3701 7.92146 11.04C7.78647 10.7098 7.71812 10.3562 7.72031 9.99948C7.72657 9.51424 7.86485 9.03986 8.12031 8.62726ZM7.31476 7.8217C6.795 8.5547 6.55138 9.44798 6.62704 10.3434C6.7027 11.2387 7.09276 12.0785 7.72815 12.7139C8.36354 13.3493 9.20327 13.7393 10.0987 13.815C10.994 13.8906 11.8873 13.647 12.6203 13.1273L13.5092 14.0161C12.4802 14.456 11.3727 14.6828 10.2536 14.6828C7.12587 14.6828 4.28142 12.9384 2.58698 9.99948C3.40015 8.5596 4.57127 7.35403 5.98698 6.49948L7.31476 7.8217Z" fill="black"/>
</g>
<defs>
<clipPath id="clip0_105_2550">
<rect width="20" height="20" fill="white"/>
</clipPath>
</defs>
</svg>
