<svg width="24" height="24" viewBox="0 0 24 24" fill="none" xmlns="http://www.w3.org/2000/svg">
<path d="M16.0781 3H7.98459C5.23609 3 3 5.2362 3 7.9847V16.0782C3 18.8268 5.23609 21.0629 7.98459 21.0629H16.0781C18.8268 21.0629 21.0629 18.8267 21.0629 16.0782V7.9847C21.063 5.2362 18.8268 3 16.0781 3ZM19.4603 16.0782C19.4603 17.9431 17.9431 19.4602 16.0782 19.4602H7.98459C6.11978 19.4603 4.60262 17.9431 4.60262 16.0782V7.9847C4.60262 6.11988 6.11978 4.60262 7.98459 4.60262H16.0781C17.943 4.60262 19.4602 6.11988 19.4602 7.9847V16.0782H19.4603Z" fill="#717171"/>
<path d="M12.0293 7.375C9.4629 7.375 7.375 9.4629 7.375 12.0293C7.375 14.5957 9.4629 16.6835 12.0293 16.6835C14.5958 16.6835 16.6837 14.5957 16.6837 12.0293C16.6837 9.4629 14.5958 7.375 12.0293 7.375ZM12.0293 15.0807C10.3467 15.0807 8.97762 13.7119 8.97762 12.0292C8.97762 10.3465 10.3466 8.97752 12.0293 8.97752C13.7121 8.97752 15.0811 10.3465 15.0811 12.0292C15.0811 13.7119 13.712 15.0807 12.0293 15.0807Z" fill="#717171"/>
<path d="M16.8862 6.01562C16.5774 6.01562 16.2741 6.14063 16.056 6.35966C15.8369 6.57761 15.7109 6.88104 15.7109 7.19088C15.7109 7.49976 15.837 7.80309 16.056 8.02211C16.274 8.24007 16.5774 8.36614 16.8862 8.36614C17.196 8.36614 17.4984 8.24007 17.7174 8.02211C17.9364 7.80309 18.0615 7.49966 18.0615 7.19088C18.0615 6.88104 17.9364 6.57761 17.7174 6.35966C17.4995 6.14063 17.196 6.01562 16.8862 6.01562Z" fill="#717171"/>
</svg>
