<svg width="20" height="20" viewBox="0 0 20 20" fill="none" xmlns="http://www.w3.org/2000/svg">
<path d="M10.4332 16.8609C10.306 16.9516 10.1538 17.0003 9.99758 17.0003C9.84141 17.0003 9.68913 16.9516 9.562 16.8609C5.80588 14.1836 1.81952 8.67657 5.84944 4.69722C6.9554 3.60835 8.44556 2.99865 9.99758 3C11.5532 3 13.0459 3.6106 14.1457 4.69644C18.1756 8.6758 14.1893 14.182 10.4332 16.8609Z" stroke="#717171" stroke-width="1.5" stroke-linecap="round" stroke-linejoin="round"/>
<path d="M10.001 9.99412C10.4135 9.99412 10.8092 9.83022 11.101 9.53848C11.3927 9.24673 11.5566 8.85105 11.5566 8.43846C11.5566 8.02588 11.3927 7.63019 11.101 7.33845C10.8092 7.04671 10.4135 6.88281 10.001 6.88281C9.58838 6.88281 9.19269 7.04671 8.90095 7.33845C8.60921 7.63019 8.44531 8.02588 8.44531 8.43846C8.44531 8.85105 8.60921 9.24673 8.90095 9.53848C9.19269 9.83022 9.58838 9.99412 10.001 9.99412Z" stroke="#717171" stroke-width="1.5" stroke-linecap="round" stroke-linejoin="round"/>
</svg>
