<svg width="24" height="24" viewBox="0 0 24 24" fill="none" xmlns="http://www.w3.org/2000/svg">
<path d="M22.019 12.0245C22.022 12.2303 21.9964 12.4357 21.9424 12.6344C21.8883 12.8331 21.8064 13.0235 21.699 13.1992C21.592 13.375 21.4605 13.535 21.3088 13.6743C21.157 13.8137 20.9865 13.9308 20.8021 14.0225C20.8063 14.0773 20.8096 14.1325 20.8115 14.1877C20.816 14.2979 20.816 14.4081 20.8115 14.5182C20.8096 14.5734 20.8063 14.6287 20.8021 14.6835C20.8021 18.0486 16.8812 20.7827 12.0438 20.7827C7.20651 20.7827 3.28556 18.0486 3.28556 14.6835C3.28143 14.6287 3.27805 14.5734 3.27617 14.5182C3.27165 14.4081 3.27165 14.2979 3.27617 14.1877C3.27805 14.1325 3.28143 14.0773 3.28556 14.0225C2.99666 13.8897 2.74006 13.6957 2.53352 13.4539C2.32698 13.2122 2.17543 12.9285 2.08937 12.6224C2.00345 12.3161 1.98515 11.9949 2.03573 11.6809C2.08632 11.3669 2.20458 11.0676 2.38232 10.8039C2.5599 10.5401 2.79273 10.3182 3.06466 10.1535C3.33659 9.98876 3.64111 9.88517 3.95708 9.84991C4.27309 9.81449 4.59302 9.8482 4.89471 9.94872C5.1964 10.0492 5.47262 10.2142 5.70423 10.432C6.13419 10.1406 6.58468 9.88066 7.05215 9.65423C7.51973 9.42814 8.00309 9.23585 8.49847 9.07961C8.99384 8.92338 9.50011 8.80357 10.0128 8.72057C10.5254 8.63757 11.0437 8.59212 11.5631 8.58424L12.6748 3.37133C12.6872 3.31086 12.7116 3.25378 12.7465 3.2027C12.7811 3.152 12.8258 3.10843 12.8772 3.07501C12.9291 3.04158 12.9869 3.01867 13.0477 3.0074C13.1082 2.99651 13.1706 2.99764 13.2306 3.01078L16.9112 3.7469C17.2827 3.10881 18.0623 2.83539 18.7508 3.1013C19.4392 3.3672 19.8328 4.09393 19.6788 4.81577C19.5252 5.53762 18.8694 6.04088 18.1326 6.00295C17.3953 5.96501 16.7948 5.39715 16.7159 4.66329L13.5011 3.98726L12.5246 8.67437C13.0376 8.68526 13.5495 8.73334 14.0558 8.81784C15.0696 8.98684 16.0537 9.3013 16.9777 9.75151C17.4392 9.9761 17.8839 10.2337 18.3083 10.5222C18.6135 10.2292 18.997 10.0308 19.4125 9.95093C19.828 9.87083 20.2578 9.9127 20.65 10.0715C21.0423 10.2302 21.3802 10.499 21.6231 10.8455C21.8661 11.1921 22.0036 11.6015 22.019 12.0245ZM7.11036 14.1017C7.18623 14.2839 7.29664 14.4495 7.43636 14.5888C7.57569 14.7286 7.74132 14.839 7.92347 14.9148C8.10579 14.9902 8.30117 15.029 8.49847 15.029C9.10614 15.029 9.65372 14.6628 9.88657 14.1017C10.1191 13.5403 9.99023 12.8943 9.56058 12.4646C9.13093 12.035 8.48495 11.9061 7.92347 12.1386C7.36237 12.3715 6.99619 12.9191 6.99619 13.5267C6.99619 13.7239 7.03487 13.9192 7.11036 14.1017ZM15.7147 17.7079C15.7917 17.6328 15.8356 17.5303 15.8371 17.4229C15.8386 17.3151 15.7969 17.2114 15.7218 17.1345C15.6467 17.0575 15.5442 17.0135 15.4367 17.012C15.329 17.0105 15.2253 17.0522 15.1385 17.1172C14.9126 17.2792 14.6734 17.4218 14.4235 17.5434C14.1735 17.6652 13.9137 17.7655 13.6468 17.8435C13.3801 17.9213 13.1071 17.9765 12.831 18.0084C12.5546 18.0403 12.2763 18.0486 11.9988 18.0336C11.7216 18.046 11.4437 18.0347 11.1684 18.0001C10.893 17.9659 10.6211 17.9081 10.3557 17.8274C10.0898 17.747 9.83174 17.6441 9.58349 17.5202C9.33524 17.3962 9.09788 17.2513 8.87404 17.0871C8.79629 17.0233 8.69752 16.9906 8.59687 16.9955C8.49621 17.0004 8.4012 17.0428 8.32984 17.1138C8.25885 17.1852 8.21641 17.2802 8.21153 17.3808C8.20665 17.4815 8.23932 17.5803 8.30317 17.658C8.5672 17.857 8.84775 18.0328 9.14182 18.1838C9.43589 18.3348 9.74273 18.4598 10.0582 18.5582C10.3737 18.6566 10.6971 18.7276 11.0249 18.7708C11.3528 18.8136 11.6837 18.8283 12.0138 18.8148C12.3439 18.8283 12.6748 18.8136 13.0027 18.7708C13.6594 18.6844 14.2963 18.4859 14.8858 18.1838C15.1799 18.0328 15.4604 17.857 15.7244 17.658L15.7147 17.7079ZM15.439 15.1492C15.6426 15.1514 15.8446 15.112 16.0328 15.0339C16.2209 14.9554 16.3911 14.8397 16.533 14.6936C16.675 14.5475 16.7854 14.374 16.8583 14.1836C16.9312 13.9934 16.9645 13.7903 16.9563 13.5868C16.9563 12.9792 16.5901 12.4316 16.029 12.1987C15.4675 11.9662 14.8216 12.0951 14.3919 12.5247C13.9623 12.9544 13.8334 13.6003 14.0659 14.1618C14.2988 14.7229 14.8463 15.0891 15.454 15.0891L15.439 15.1492Z" fill="#717171"/>
</svg>
