<svg width="20" height="20" viewBox="0 0 20 20" fill="none" xmlns="http://www.w3.org/2000/svg">
<path d="M18.0002 18.0002L14.1397 14.1397M14.1397 14.1397C14.8001 13.4794 15.3239 12.6954 15.6813 11.8327C16.0386 10.9699 16.2226 10.0452 16.2226 9.11129C16.2226 8.17742 16.0386 7.2527 15.6813 6.38992C15.3239 5.52714 14.8001 4.74319 14.1397 4.08285C13.4794 3.4225 12.6954 2.89869 11.8327 2.54131C10.9699 2.18394 10.0452 2 9.11129 2C8.17742 2 7.2527 2.18394 6.38992 2.54131C5.52714 2.89869 4.74319 3.4225 4.08285 4.08285C2.74922 5.41647 2 7.22526 2 9.11129C2 10.9973 2.74922 12.8061 4.08285 14.1397C5.41647 15.4734 7.22526 16.2226 9.11129 16.2226C10.9973 16.2226 12.8061 15.4734 14.1397 14.1397Z" stroke="black" stroke-width="1.5" stroke-linecap="round" stroke-linejoin="round"/>
</svg>
