<svg width="20" height="20" viewBox="0 0 20 20" fill="none" xmlns="http://www.w3.org/2000/svg">
<path d="M18.6753 9.74306C16.8031 6.28194 13.5198 4.1875 9.88646 4.1875C6.25313 4.1875 2.96424 6.28194 1.10868 9.74306L0.953125 10.0042L1.09757 10.2708C2.96979 13.7319 6.25313 15.8264 9.88646 15.8264C13.5198 15.8264 16.8087 13.7597 18.6753 10.2708L18.8198 10.0042L18.6753 9.74306ZM9.88646 14.6875C6.75868 14.6875 3.88646 12.9431 2.21979 10.0042C3.88646 7.06528 6.75868 5.32083 9.88646 5.32083C13.0142 5.32083 15.8531 7.07083 17.5476 10.0042C15.8531 12.9431 13.0087 14.6875 9.88646 14.6875Z" fill="#D1D1D1"/>
<path d="M10.0489 6.20323C9.29566 6.20872 8.56091 6.43733 7.93749 6.86016C7.31407 7.28299 6.82994 7.88109 6.54624 8.57892C6.26254 9.27674 6.192 10.043 6.34353 10.7809C6.49506 11.5188 6.86186 12.1952 7.39761 12.7247C7.93336 13.2543 8.61402 13.6132 9.35362 13.7561C10.0932 13.899 10.8586 13.8196 11.5531 13.5278C12.2475 13.236 12.84 12.7449 13.2555 12.1166C13.6711 11.4883 13.8911 10.751 13.8878 9.99767C13.8856 9.49625 13.7845 9.00018 13.5903 8.5379C13.396 8.07563 13.1125 7.65622 12.7559 7.30373C12.3992 6.95124 11.9766 6.67258 11.5121 6.48374C11.0475 6.29489 10.5503 6.19957 10.0489 6.20323ZM10.0489 12.7143C9.51684 12.7089 8.99825 12.5463 8.55826 12.247C8.11828 11.9478 7.77654 11.5252 7.57595 11.0323C7.37536 10.5395 7.32487 9.99832 7.43082 9.47686C7.53677 8.95541 7.79444 8.47689 8.17147 8.1014C8.54849 7.72591 9.02806 7.4702 9.54994 7.36637C10.0718 7.26255 10.6127 7.31525 11.1048 7.51785C11.5968 7.72045 12.018 8.06392 12.3155 8.50512C12.6129 8.94632 12.7734 9.46557 12.7767 9.99767C12.7782 10.3558 12.7086 10.7106 12.5719 11.0416C12.4352 11.3726 12.2341 11.6732 11.9804 11.9259C11.7266 12.1786 11.4253 12.3784 11.0937 12.5138C10.7621 12.6491 10.407 12.7173 10.0489 12.7143Z" fill="#D1D1D1"/>
</svg>
