<svg width="20" height="20" viewBox="0 0 20 20" fill="none" xmlns="http://www.w3.org/2000/svg">
<path d="M10.6951 9.99293H16.9974M16.9974 9.99293L14.6634 7.19189M16.9974 9.99293L14.6634 12.794M11.3953 6.49163V5.21295C11.3953 5.01924 11.3551 4.82764 11.2773 4.65026C11.1994 4.47287 11.0856 4.31356 10.9431 4.1824C10.8005 4.05124 10.6323 3.95107 10.4491 3.88823C10.2659 3.8254 10.0716 3.80125 9.87855 3.81733L4.27647 4.28371C3.92637 4.31286 3.60002 4.47253 3.36213 4.73104C3.12425 4.98955 2.9922 5.32802 2.99219 5.67933V14.3065C2.9922 14.6578 3.12425 14.9963 3.36213 15.2548C3.60002 15.5133 3.92637 15.673 4.27647 15.7022L9.87855 16.1692C10.0716 16.1853 10.266 16.1611 10.4493 16.0983C10.6326 16.0354 10.8008 15.9352 10.9434 15.8039C11.0859 15.6727 11.1997 15.5133 11.2775 15.3358C11.3553 15.1584 11.3954 14.9667 11.3953 14.7729V13.4942" stroke="#717171" stroke-width="1.5" stroke-linecap="round" stroke-linejoin="round"/>
</svg>
