<svg width="20" height="20" viewBox="0 0 20 20" fill="none" xmlns="http://www.w3.org/2000/svg">
<path d="M15.0645 8.78712H15.0298V7.93811C15.0298 5.21087 12.819 3 10.0917 3C7.36442 3 5.15359 5.21087 5.15359 7.93811V8.78712H4.94568C4.1833 8.78712 3.5942 9.46284 3.5942 10.2426V12.4084C3.575 13.1641 4.17209 13.7923 4.92781 13.8115C4.93378 13.8117 4.93971 13.8118 4.94568 13.8118H6.22785C6.40946 13.8033 6.54977 13.6491 6.54122 13.4675C6.54092 13.461 6.54042 13.4545 6.53973 13.448V9.20293C6.53973 8.99502 6.41844 8.78708 6.22785 8.78708H5.84666V7.93807C5.84666 5.59362 7.74724 3.69304 10.0917 3.69304C12.4362 3.69304 14.3367 5.59362 14.3367 7.93807V8.78708H13.9555C13.7649 8.78708 13.6437 8.99499 13.6437 9.20293V13.448C13.6243 13.6287 13.7552 13.791 13.936 13.8103C13.9425 13.811 13.949 13.8115 13.9555 13.8118H14.354L14.3194 13.8638C13.7995 14.5548 12.9836 14.9595 12.1189 14.9554C11.9296 14.0271 11.0236 13.4281 10.0954 13.6174C9.30159 13.7793 8.72927 14.4745 8.72287 15.2846C8.73235 16.2347 9.50535 17 10.4555 16.9999C10.9259 16.9923 11.3743 16.7993 11.7031 16.4628C11.9249 16.2356 12.0702 15.9448 12.1189 15.6311C13.2018 15.6352 14.223 15.1278 14.8738 14.2623L15.2031 13.7771C15.9481 13.7252 16.4159 13.2573 16.4159 12.5816V10.4158C16.4159 9.67078 15.8615 8.78712 15.0645 8.78712ZM5.84666 13.1188H4.94568C4.57258 13.1097 4.27749 12.7999 4.28657 12.4268C4.28674 12.4207 4.28697 12.4145 4.28727 12.4084V10.2425C4.28727 9.84403 4.56449 9.48015 4.94568 9.48015H5.84666V13.1188ZM11.2006 15.9777C11.0086 16.1859 10.7388 16.3051 10.4556 16.3069C9.89185 16.2979 9.43438 15.8481 9.41597 15.2846C9.41574 14.72 9.87324 14.2622 10.4378 14.2619C11.0024 14.2617 11.4603 14.7192 11.4605 15.2838C11.4605 15.284 11.4605 15.2843 11.4605 15.2846C11.4749 15.5419 11.3806 15.7934 11.2006 15.9777ZM15.7229 12.5816C15.7229 13.0495 15.2724 13.1188 15.0645 13.1188H14.3367V9.48018H15.0645C15.4457 9.48018 15.7229 10.0173 15.7229 10.4158V12.5816Z" fill="#717171" stroke="#717171" stroke-width="0.7"/>
</svg>
