<svg width="24" height="24" viewBox="0 0 24 24" fill="none" xmlns="http://www.w3.org/2000/svg">
<path d="M10.9287 10.0248V9.42872C10.7218 9.39596 10.5128 9.37801 10.3033 9.37501C8.27519 9.37068 6.47965 10.685 5.8706 12.6195C5.26155 14.554 5.98046 16.6598 7.64517 17.8181C7.03472 17.1648 6.62641 16.3487 6.46953 15.4685C6.31264 14.5882 6.4139 13.6813 6.76106 12.8573C7.10822 12.0333 7.68646 11.3274 8.42598 10.8248C9.16549 10.3222 10.0347 10.0444 10.9286 10.0249L10.9287 10.0248Z" fill="#717171"/>
<path d="M11.0383 16.777C12.1722 16.7755 13.1043 15.8822 13.154 14.7493V4.6401H15.0008C14.9631 4.42885 14.9451 4.21457 14.9471 4L12.421 4V14.0995C12.379 15.2381 11.4447 16.14 10.3053 16.1418C9.96484 16.1389 9.62991 16.0552 9.32812 15.8975C9.52372 16.1685 9.78059 16.3894 10.0778 16.5423C10.375 16.6951 10.7041 16.7756 11.0383 16.777ZM18.4504 8.07005V7.50815C17.7707 7.50842 17.106 7.30786 16.5399 6.93165C17.0362 7.50856 17.7068 7.90817 18.4504 8.07005Z" fill="#717171"/>
<path d="M16.5367 6.9293C15.9791 6.29428 15.6716 5.47795 15.6719 4.63281H14.9976C15.0847 5.10008 15.2661 5.5447 15.5307 5.93954C15.7953 6.33437 16.1376 6.67114 16.5367 6.9293ZM10.2972 11.8984C9.82431 11.9008 9.36575 12.0613 8.99448 12.3542C8.6232 12.6472 8.36051 13.0558 8.24818 13.5153C8.13585 13.9747 8.18032 14.4584 8.37453 14.8897C8.56873 15.3209 8.90152 15.6748 9.31999 15.8952C9.09119 15.5793 8.95418 15.2063 8.92409 14.8174C8.894 14.4285 8.97199 14.0389 9.14946 13.6915C9.32694 13.3442 9.59697 13.0527 9.92974 12.8492C10.2625 12.6457 10.645 12.5381 11.0351 12.5384C11.2471 12.5412 11.4577 12.5742 11.6604 12.6365V10.0661C11.4534 10.0351 11.2444 10.0188 11.0351 10.0173H10.9227V11.9717C10.7189 11.917 10.5082 11.8923 10.2972 11.8984Z" fill="#717171"/>
<path d="M18.4487 8.07031V10.0248C17.1904 10.0223 15.9647 9.62402 14.9454 8.8863V14.0216C14.94 16.584 12.8612 18.6584 10.2988 18.6584C9.3471 18.6601 8.41834 18.3665 7.64062 17.818C8.27481 18.5001 9.09971 18.9755 10.0079 19.1821C10.9161 19.3887 11.8654 19.3171 12.7323 18.9764C13.5991 18.6358 14.3433 18.0421 14.8679 17.2725C15.3925 16.5029 15.6732 15.5932 15.6734 14.6618V9.54107C16.6962 10.2739 17.9233 10.667 19.1816 10.6649V8.14831C18.9353 8.14758 18.6896 8.12144 18.4487 8.07031Z" fill="#717171"/>
<path d="M14.9468 14.0189V8.88369C15.9693 9.61721 17.1966 10.0104 18.455 10.0075V8.05309C17.7116 7.8961 17.0394 7.50168 16.5397 6.9293C16.1406 6.67114 15.7983 6.33437 15.5336 5.93954C15.269 5.5447 15.0876 5.10008 15.0005 4.63281H13.1537V14.7471C13.1357 15.1874 12.981 15.6111 12.7112 15.9594C12.4413 16.3077 12.0696 16.5633 11.6478 16.6906C11.226 16.818 10.7749 16.8107 10.3574 16.67C9.93988 16.5292 9.57658 16.2618 9.31798 15.9051C8.89945 15.6847 8.56659 15.3308 8.37233 14.8996C8.17808 14.4683 8.13358 13.9845 8.24592 13.525C8.35826 13.0656 8.62098 12.6569 8.99231 12.3639C9.36364 12.0709 9.82226 11.9105 10.2952 11.9081C10.5074 11.91 10.7181 11.943 10.9207 12.0059V10.0514C10.0219 10.0667 9.14704 10.3431 8.40268 10.847C7.65832 11.3508 7.07664 12.0604 6.72857 12.8891C6.3805 13.7179 6.28108 14.63 6.44242 15.5142C6.60377 16.3985 7.01891 17.2167 7.63724 17.8691C8.4226 18.3995 9.35267 18.6743 10.3002 18.6558C12.8626 18.6558 14.9414 16.5814 14.9468 14.0189Z" fill="#717171"/>
</svg>
