<svg width="20" height="20" viewBox="0 0 20 20" fill="none" xmlns="http://www.w3.org/2000/svg">
<path d="M6.65885 15.8333C7.10088 15.8333 7.5248 15.6577 7.83737 15.3452C8.14993 15.0326 8.32552 14.6087 8.32552 14.1667C8.32552 13.7246 8.14993 13.3007 7.83737 12.9882C7.5248 12.6756 7.10088 12.5 6.65885 12.5C6.21683 12.5 5.7929 12.6756 5.48034 12.9882C5.16778 13.3007 4.99219 13.7246 4.99219 14.1667C4.99219 14.6087 5.16778 15.0326 5.48034 15.3452C5.7929 15.6577 6.21683 15.8333 6.65885 15.8333ZM14.9922 15.8333C15.4342 15.8333 15.8581 15.6577 16.1707 15.3452C16.4833 15.0326 16.6589 14.6087 16.6589 14.1667C16.6589 13.7246 16.4833 13.3007 16.1707 12.9882C15.8581 12.6756 15.4342 12.5 14.9922 12.5C14.5502 12.5 14.1262 12.6756 13.8137 12.9882C13.5011 13.3007 13.3255 13.7246 13.3255 14.1667C13.3255 14.6087 13.5011 15.0326 13.8137 15.3452C14.1262 15.6577 14.5502 15.8333 14.9922 15.8333Z" stroke="#717171" stroke-width="1.4" stroke-miterlimit="1.5" stroke-linecap="round" stroke-linejoin="round"/>
<path d="M8.36979 14.1667H12.4948V5.5C12.4948 5.36739 12.4421 5.24021 12.3483 5.14645C12.2546 5.05268 12.1274 5 11.9948 5H0.828125M4.70312 14.1667H2.99479C2.92913 14.1667 2.86411 14.1537 2.80345 14.1286C2.74279 14.1035 2.68767 14.0667 2.64124 14.0202C2.59481 13.9738 2.55798 13.9187 2.53285 13.858C2.50772 13.7973 2.49479 13.7323 2.49479 13.6667V9.58333" stroke="#717171" stroke-width="1.4" stroke-linecap="round"/>
<path d="M1.66406 7.5H4.9974" stroke="#717171" stroke-width="1.4" stroke-linecap="round" stroke-linejoin="round"/>
<path d="M12.4922 7.5H17.1672C17.2638 7.50002 17.3584 7.52806 17.4395 7.58071C17.5205 7.63336 17.5846 7.70837 17.6239 7.79667L19.1155 11.1533C19.1439 11.2171 19.1587 11.286 19.1589 11.3558V13.6667C19.1589 13.7323 19.1459 13.7973 19.1208 13.858C19.0957 13.9187 19.0588 13.9738 19.0124 14.0202C18.966 14.0666 18.9109 14.1035 18.8502 14.1286C18.7895 14.1537 18.7245 14.1667 18.6589 14.1667H17.0755M12.4922 14.1667H13.3255" stroke="#717171" stroke-width="1.4" stroke-linecap="round"/>
</svg>
