<svg width="20" height="20" viewBox="0 0 20 20" fill="none" xmlns="http://www.w3.org/2000/svg">
<path d="M3.33594 17.0859V15.4193C3.33594 14.5352 3.68713 13.6874 4.31225 13.0622C4.93737 12.4371 5.78522 12.0859 6.66927 12.0859H9.58594M16.6693 17.9193L12.5026 13.7526M12.5026 17.9193L16.6693 13.7526M5.0026 5.41927C5.0026 6.30333 5.35379 7.15117 5.97891 7.77629C6.60404 8.40141 7.45188 8.7526 8.33594 8.7526C9.21999 8.7526 10.0678 8.40141 10.693 7.77629C11.3181 7.15117 11.6693 6.30333 11.6693 5.41927C11.6693 4.53522 11.3181 3.68737 10.693 3.06225C10.0678 2.43713 9.21999 2.08594 8.33594 2.08594C7.45188 2.08594 6.60404 2.43713 5.97891 3.06225C5.35379 3.68737 5.0026 4.53522 5.0026 5.41927Z" stroke="#DC4E4E" stroke-width="1.5" stroke-linecap="round" stroke-linejoin="round"/>
</svg>
