<svg width="20" height="20" viewBox="0 0 20 20" fill="none" xmlns="http://www.w3.org/2000/svg">
<path d="M5.50781 7H8.50521" stroke="#717171" stroke-width="1.5" stroke-linecap="round" stroke-linejoin="round"/>
<path d="M16.621 7.74219H14.6711C13.3336 7.74219 12.25 8.74856 12.25 9.99023C12.25 11.2319 13.3343 12.2383 14.6704 12.2383H16.621C16.6839 12.2383 16.7146 12.2383 16.7408 12.2368C17.1455 12.2121 17.4677 11.9131 17.4939 11.5376C17.4954 11.5137 17.4954 11.4844 17.4954 11.4267V8.55373C17.4954 8.49603 17.4954 8.46681 17.4939 8.44283C17.467 8.06741 17.1455 7.76841 16.7408 7.74369C16.7154 7.74219 16.6839 7.74219 16.621 7.74219Z" stroke="#717171" stroke-width="1.5"/>
<path d="M16.7192 7.74674C16.6608 6.34396 16.4734 5.48371 15.8672 4.87824C14.9897 4 13.5764 4 10.7507 4H8.5026C5.67681 4 4.26354 4 3.38605 4.87824C2.50781 5.75572 2.50781 7.169 2.50781 9.99479C2.50781 12.8206 2.50781 14.2339 3.38605 15.1113C4.26354 15.9896 5.67681 15.9896 8.5026 15.9896H10.7507C13.5764 15.9896 14.9897 15.9896 15.8672 15.1113C16.4734 14.5059 16.6615 13.6456 16.7192 12.2428" stroke="#717171" stroke-width="1.5"/>
<path d="M14.4922 9.99219H14.5009" stroke="#717171" stroke-width="1.4987" stroke-linecap="round" stroke-linejoin="round"/>
</svg>
