<svg width="20" height="20" viewBox="0 0 20 20" fill="none" xmlns="http://www.w3.org/2000/svg">
<path d="M2.01562 2H5.02012L6.09052 12.6425C6.13501 12.9358 6.28403 13.2033 6.51013 13.3954C6.73622 13.5876 7.02415 13.6916 7.32087 13.6883H15.072C15.3403 13.7023 15.6058 13.6281 15.828 13.477C16.0502 13.3259 16.2168 13.1063 16.3024 12.8516L17.9387 7.93026C17.9998 7.74524 18.0161 7.54836 17.9861 7.35583C17.9562 7.1633 17.8809 6.98065 17.7665 6.82295C17.6474 6.65522 17.4881 6.52004 17.3033 6.42977C17.1184 6.3395 16.9139 6.29701 16.7084 6.3062H5.45074M14.8629 17.9945C14.6997 17.9945 14.5432 17.9297 14.4279 17.8143C14.3125 17.6989 14.2477 17.5424 14.2477 17.3793C14.2477 17.2161 14.3125 17.0597 14.4279 16.9443C14.5432 16.8289 14.6997 16.7641 14.8629 16.7641C15.026 16.7641 15.1825 16.8289 15.2979 16.9443C15.4132 17.0597 15.478 17.2161 15.478 17.3793C15.478 17.5424 15.4132 17.6989 15.2979 17.8143C15.1825 17.9297 15.026 17.9945 14.8629 17.9945ZM6.86564 17.9945C6.70248 17.9945 6.54601 17.9297 6.43065 17.8143C6.31528 17.6989 6.25047 17.5424 6.25047 17.3793C6.25047 17.2161 6.31528 17.0597 6.43065 16.9443C6.54601 16.8289 6.70248 16.7641 6.86564 16.7641C7.02879 16.7641 7.18526 16.8289 7.30063 16.9443C7.416 17.0597 7.48081 17.2161 7.48081 17.3793C7.48081 17.5424 7.416 17.6989 7.30063 17.8143C7.18526 17.9297 7.02879 17.9945 6.86564 17.9945Z" stroke="black" stroke-width="1.5" stroke-linecap="round" stroke-linejoin="round"/>
</svg>
