<svg width="24" height="24" viewBox="0 0 24 24" fill="none" xmlns="http://www.w3.org/2000/svg">
<path d="M20.235 7.005C19.7467 6.1365 19.2169 5.97675 18.138 5.916C17.0603 5.84288 14.3501 5.8125 12.0022 5.8125C9.64987 5.8125 6.93862 5.84288 5.862 5.91488C4.78537 5.97675 4.25437 6.13537 3.76162 7.005C3.25875 7.87238 3 9.36638 3 11.9966C3 11.9989 3 12 3 12C3 12.0023 3 12.0034 3 12.0034V12.0056C3 14.6246 3.25875 16.1299 3.76162 16.9882C4.25437 17.8568 4.78425 18.0143 5.86087 18.0874C6.93863 18.1504 9.64987 18.1875 12.0022 18.1875C14.3501 18.1875 17.0602 18.1504 18.1391 18.0885C19.218 18.0154 19.7479 17.8579 20.2361 16.9894C20.7435 16.131 21 14.6257 21 12.0067C21 12.0067 21 12.0034 21 12.0011C21 12.0011 21 11.9989 21 11.9978C21 9.36638 20.7435 7.87238 20.235 7.005Z" fill="#717171"/>
<path d="M9.75 15.375V8.625L15.375 12L9.75 15.375Z" fill="#EDEDED"/>
</svg>
